<svg width="87" height="70" viewBox="0 0 87 70" fill="none" xmlns="http://www.w3.org/2000/svg">
<g opacity="0.9" filter="url(#filter0_d_198_1699)">
<path d="M61.0134 25.9965C60.7023 25.6784 60.2804 25.4998 59.8404 25.4998C59.4005 25.4998 58.9786 25.6784 58.6675 25.9965L44.6625 40.3167C44.3514 40.6347 43.9295 40.8134 43.4896 40.8134C43.0496 40.8134 42.6277 40.6347 42.3166 40.3167L28.3117 25.9965C27.9988 25.6875 27.5797 25.5165 27.1447 25.5203C26.7097 25.5242 26.2935 25.7026 25.9859 26.0171C25.6783 26.3317 25.5038 26.7572 25.5001 27.202C25.4963 27.6468 25.6635 28.0753 25.9657 28.3952L39.9723 42.7154C40.9061 43.6687 42.1717 44.2041 43.4912 44.2041C44.8107 44.2041 46.0763 43.6687 47.0101 42.7154L61.0151 28.3952C61.3259 28.0769 61.5003 27.6453 61.5 27.1955C61.4997 26.7457 61.3247 26.3144 61.0134 25.9965Z" fill="white"/>
<path d="M61.0134 25.9965C60.7023 25.6784 60.2804 25.4998 59.8404 25.4998C59.4005 25.4998 58.9786 25.6784 58.6675 25.9965L44.6625 40.3167C44.3514 40.6347 43.9295 40.8134 43.4896 40.8134C43.0496 40.8134 42.6277 40.6347 42.3166 40.3167L28.3117 25.9965C27.9988 25.6875 27.5797 25.5165 27.1447 25.5203C26.7097 25.5242 26.2935 25.7026 25.9859 26.0171C25.6783 26.3317 25.5038 26.7572 25.5001 27.202C25.4963 27.6468 25.6635 28.0753 25.9657 28.3952L39.9723 42.7154C40.9061 43.6687 42.1717 44.2041 43.4912 44.2041C44.8107 44.2041 46.0763 43.6687 47.0101 42.7154L61.0151 28.3952C61.3259 28.0769 61.5003 27.6453 61.5 27.1955C61.4997 26.7457 61.3247 26.3144 61.0134 25.9965Z" stroke="white"/>
</g>
<defs>
<filter id="filter0_d_198_1699" x="0" y="0" width="87" height="69.7041" filterUnits="userSpaceOnUse" color-interpolation-filters="sRGB">
<feFlood flood-opacity="0" result="BackgroundImageFix"/>
<feColorMatrix in="SourceAlpha" type="matrix" values="0 0 0 0 0 0 0 0 0 0 0 0 0 0 0 0 0 0 127 0" result="hardAlpha"/>
<feOffset/>
<feGaussianBlur stdDeviation="12.5"/>
<feComposite in2="hardAlpha" operator="out"/>
<feColorMatrix type="matrix" values="0 0 0 0 0 0 0 0 0 0 0 0 0 0 0 0 0 0 1 0"/>
<feBlend mode="normal" in2="BackgroundImageFix" result="effect1_dropShadow_198_1699"/>
<feBlend mode="normal" in="SourceGraphic" in2="effect1_dropShadow_198_1699" result="shape"/>
</filter>
</defs>
</svg>
