<svg width="22" height="16" viewBox="0 0 22 16" fill="none" xmlns="http://www.w3.org/2000/svg">
<path d="M0 1.8805V1.33333C0 0.979711 0.144866 0.640573 0.402728 0.390524C0.660591 0.140476 1.01033 0 1.375 0L20.625 0C20.9897 0 21.3394 0.140476 21.5973 0.390524C21.8551 0.640573 22 0.979711 22 1.33333V1.8805L11 8.54717L0 1.8805ZM11.3644 9.89883C11.2551 9.96498 11.1288 10 11 10C10.8712 10 10.7449 9.96498 10.6356 9.89883L0 3.45283V14.6667C0 15.0203 0.144866 15.3594 0.402728 15.6095C0.660591 15.8595 1.01033 16 1.375 16H20.625C20.9897 16 21.3394 15.8595 21.5973 15.6095C21.8551 15.3594 22 15.0203 22 14.6667V3.45283L11.3644 9.89883Z" fill="white"/>
</svg>
