<svg width="25" height="24" viewBox="0 0 25 24" fill="none" xmlns="http://www.w3.org/2000/svg">
<path d="M12.4999 0C9.53181 0.000121147 6.66057 1.03979 4.39996 2.93297C2.13935 4.82615 0.636906 7.44931 0.161449 10.3331C-0.314007 13.2169 0.268554 16.1731 1.8049 18.6727C3.34124 21.1724 5.7311 23.0524 8.54687 23.9764C9.17187 24.0841 9.40624 23.715 9.40624 23.392C9.40624 23.0998 9.39061 22.1309 9.39061 21.1005C6.24999 21.6695 5.4375 20.347 5.1875 19.6549C4.91009 18.9818 4.47035 18.3853 3.90626 17.917C3.46876 17.6863 2.84376 17.1173 3.89062 17.1019C4.29035 17.1446 4.67373 17.2815 5.00829 17.501C5.34284 17.7205 5.6187 18.0162 5.81249 18.363C5.98346 18.6653 6.21334 18.9314 6.48898 19.1461C6.76461 19.3608 7.08058 19.5198 7.41877 19.6141C7.75697 19.7084 8.11074 19.7361 8.45982 19.6956C8.8089 19.6551 9.14643 19.5471 9.45307 19.378C9.50718 18.7525 9.79039 18.1677 10.25 17.7325C7.46873 17.4249 4.5625 16.3637 4.5625 11.6576C4.54494 10.4348 5.00336 9.25175 5.84374 8.35104C5.4616 7.28829 5.50631 6.122 5.96874 5.09061C5.96874 5.09061 7.01557 4.76763 9.40622 6.35172C11.4516 5.79803 13.6108 5.79803 15.6562 6.35172C18.0468 4.75227 19.0936 5.09061 19.0936 5.09061C19.5561 6.12198 19.6009 7.2883 19.2186 8.35104C20.0616 9.25021 20.5204 10.4343 20.4999 11.6576C20.4999 16.379 17.578 17.4249 14.7968 17.7325C15.0951 18.0301 15.3249 18.3874 15.4705 18.7801C15.616 19.1729 15.674 19.5918 15.6405 20.0086C15.6405 21.6542 15.6249 22.9768 15.6249 23.3921C15.6249 23.7151 15.8593 24.0995 16.4843 23.9765C19.2951 23.045 21.6781 21.1605 23.2079 18.6596C24.7377 16.1586 25.3147 13.2039 24.836 10.3229C24.3572 7.44195 22.8538 4.8222 20.5942 2.93132C18.3346 1.04045 15.4658 0.00151937 12.4999 0Z" fill="white"/>
</svg>
